<svg width="28" height="28" viewBox="0 0 28 28" fill="none" xmlns="http://www.w3.org/2000/svg">
<path d="M14 2C7.37258 2 2 7.37258 2 14C2 20.6274 7.37258 26 14 26C20.6274 26 26 20.6274 26 14C26 7.37258 20.6274 2 14 2Z" stroke="#3F8DE8" stroke-width="3" stroke-linecap="round" stroke-linejoin="round"/>
<path d="M19.6556 9.30544C19.4203 9.25495 19.1888 9.40486 19.1384 9.64007L18.8219 11.1172C17.814 9.39792 15.9642 8.31902 13.9367 8.31902C10.8144 8.31902 8.27418 10.8592 8.27418 13.9815C8.27418 14.2221 8.46918 14.4171 8.70976 14.4171C8.9503 14.4171 9.14534 14.2221 9.14534 13.9815C9.14534 11.3396 11.2947 9.19017 13.9367 9.19017C15.6591 9.19017 17.2302 10.1102 18.0808 11.5751L16.6286 11.2639C16.3934 11.2135 16.1618 11.3634 16.1115 11.5986C16.0611 11.8338 16.2109 12.0654 16.4461 12.1158L18.9389 12.65C18.9813 12.6591 19.0243 12.6617 19.0667 12.6581C19.1373 12.6522 19.2062 12.629 19.2668 12.5898C19.3638 12.527 19.4319 12.4283 19.4561 12.3154L19.9903 9.82259C20.0407 9.58742 19.8908 9.3559 19.6556 9.30544Z" fill="#3F8DE8"/>
<path d="M19.2172 13.4106C18.9768 13.4185 18.7883 13.6199 18.7962 13.8603C18.8385 15.1394 18.3801 16.3584 17.5055 17.2928C16.6309 18.2271 15.4448 18.765 14.1657 18.8072C14.1124 18.8089 14.0593 18.8098 14.0062 18.8098C12.3372 18.8097 10.7997 17.9429 9.93145 16.5385L11.4454 16.9445C11.6778 17.0068 11.9166 16.8689 11.9789 16.6366C12.0412 16.4042 11.9034 16.1654 11.671 16.103L9.20867 15.4428C9.0971 15.4129 8.97817 15.4285 8.87816 15.4862C8.77808 15.544 8.70508 15.6391 8.67515 15.7507L8.01499 18.2131C7.95268 18.4455 8.09053 18.6843 8.32289 18.7467C8.36069 18.7568 8.39861 18.7617 8.43596 18.7617C8.62824 18.7617 8.80425 18.6333 8.85642 18.4388L9.22749 17.0548C10.2598 18.6803 12.0566 19.681 14.006 19.681C14.0686 19.681 14.1316 19.68 14.1945 19.6779C15.7061 19.6279 17.1079 18.9923 18.1415 17.8881C19.1751 16.7839 19.7169 15.3432 19.6669 13.8315C19.659 13.5912 19.4576 13.4021 19.2172 13.4106Z" fill="#3F8DE8"/>
</svg>
